<svg width="20" height="19" viewBox="0 0 20 19" fill="none" xmlns="http://www.w3.org/2000/svg">
<path fill-rule="evenodd" clip-rule="evenodd" d="M7.72011 1.0915C9.52284 0.625592 11.4321 0.69503 13.1922 1.29051C14.9523 1.886 16.4793 2.9791 17.5687 4.42346V2.69477C17.5687 2.47782 17.6592 2.26976 17.8204 2.11636C17.9815 1.96295 18.2001 1.87677 18.4281 1.87677C18.656 1.87677 18.8746 1.96295 19.0357 2.11636C19.1969 2.26976 19.2874 2.47782 19.2874 2.69477V7.33007H14.4176C14.1897 7.33007 13.9711 7.24389 13.8099 7.09049C13.6487 6.93708 13.5582 6.72902 13.5582 6.51208C13.5582 6.29513 13.6487 6.08707 13.8099 5.93367C13.9711 5.78026 14.1897 5.69408 14.4176 5.69408H16.3965C15.4989 4.35747 14.1563 3.34601 12.5834 2.82154C11.0105 2.29706 9.29827 2.28986 7.72059 2.8011C6.14291 3.31234 4.79096 4.31247 3.88102 5.64149C2.97108 6.97051 2.55573 8.55162 2.70142 10.1319C2.84711 11.7121 3.54542 13.2002 4.68464 14.3581C5.82386 15.516 7.33815 16.2767 8.98527 16.5185C10.6324 16.7604 12.3171 16.4695 13.77 15.6923C15.2229 14.9151 16.3599 13.6965 16.9992 12.2315C17.0407 12.1299 17.1031 12.0373 17.1827 11.959C17.2624 11.8807 17.3576 11.8183 17.4629 11.7756C17.5683 11.7328 17.6815 11.7105 17.796 11.71C17.9105 11.7095 18.0239 11.7307 18.1296 11.7725C18.2354 11.8143 18.3313 11.8758 18.4117 11.9533C18.4922 12.0309 18.5555 12.123 18.598 12.2241C18.6406 12.3253 18.6614 12.4336 18.6594 12.5425C18.6573 12.6515 18.6325 12.759 18.5862 12.8586C17.989 14.2269 17.0355 15.4279 15.8158 16.3484C14.596 17.2688 13.15 17.8785 11.6142 18.1199C10.0784 18.3612 8.50325 18.2264 7.03733 17.728C5.57142 17.2296 4.263 16.384 3.2354 15.2711C2.20779 14.1582 1.49486 12.8145 1.16381 11.3668C0.832755 9.91902 0.894483 8.41487 1.34317 6.9961C1.79187 5.57734 2.61274 4.2907 3.72842 3.25747C4.84409 2.22423 6.21782 1.47954 7.72011 1.0915Z" fill="#124734"/>
</svg>
