<svg width="19" height="23" viewBox="0 0 19 23" fill="none" xmlns="http://www.w3.org/2000/svg">
<path fill-rule="evenodd" clip-rule="evenodd" d="M3.01854 7.86277C3.29728 4.93657 5.75368 2.64631 8.724 2.50881C12.156 2.32404 14.9869 5.06977 15 8.41277C15 10.0155 14.3032 11.614 13.0967 12.714C12.3084 13.4445 11.8424 14.407 11.8424 15.4597V19.3055C11.8424 19.5332 11.6072 19.718 11.3764 19.718H9.47311V20.0402C9.47311 20.3152 9.28583 20.5 9.00709 20.5C8.72835 20.5 8.54108 20.3152 8.54108 20.0402V19.718H6.63781C6.35907 19.718 6.17179 19.5332 6.17179 19.2582V15.4597C6.17179 14.407 5.71012 13.4445 4.87391 12.6667C3.52811 11.4335 2.87917 9.64599 3.01854 7.86277ZM12.4347 12.0265C11.5201 12.8859 10.9713 13.9902 10.9104 15.1847H7.13431C7.05156 14.0202 6.50279 12.9073 5.57076 12.0265C4.41224 10.9737 3.85476 9.50849 3.99413 7.953C4.22496 5.48228 6.2676 3.55726 8.77191 3.41976C11.6464 3.28226 14.0593 5.57251 14.0593 8.40848C14.0593 9.78349 13.4582 11.0683 12.4347 12.0265ZM10.906 16.1H7.14738V18.8027H10.906V16.1Z" fill="white" stroke="white" stroke-width="0.5"/>
</svg>
